<?xml version="1.0" standalone="no"?>
<!DOCTYPE svg PUBLIC "-//W3C//DTD SVG 20010904//EN"
 "http://www.w3.org/TR/2001/REC-SVG-20010904/DTD/svg10.dtd">
<svg version="1.0" xmlns="http://www.w3.org/2000/svg"
 width="251.000000pt" height="251.000000pt" viewBox="0 0 251.000000 251.000000"
 preserveAspectRatio="xMidYMid meet">
<metadata>
Created by potrace 1.14, written by Peter Selinger 2001-2017
</metadata>
<g transform="translate(0.000000,251.000000) scale(0.100000,-0.100000)"
fill="#000000" stroke="none">
<path d="M2 2260 c1 -27 4 -30 34 -30 111 0 198 -51 224 -132 12 -35 14 -189
16 -816 0 -425 -3 -799 -8 -830 -16 -104 -76 -152 -193 -152 l-71 0 -2 -30
c-2 -25 1 -30 20 -31 117 -3 648 0 656 5 5 3 7 16 5 29 -4 21 -10 23 -75 25
-121 4 -178 50 -194 156 -4 28 -8 374 -8 768 -1 574 1 714 11 706 7 -6 13 -16
13 -22 0 -7 8 -30 19 -52 10 -21 56 -124 101 -229 45 -104 91 -208 101 -230
10 -22 87 -200 172 -395 364 -837 328 -760 358 -760 22 0 30 7 42 38 8 20 26
62 40 92 13 30 61 141 106 245 89 205 86 199 129 295 16 36 123 282 238 547
115 265 210 480 212 478 2 -2 4 -331 4 -733 0 -743 -2 -782 -39 -838 -23 -36
-91 -63 -163 -66 -47 -2 -67 -7 -71 -18 -16 -40 -12 -40 416 -40 l412 0 -2 28
c-1 26 -3 27 -75 33 -41 3 -86 10 -100 16 -46 20 -78 65 -89 123 -13 71 -14
1575 0 1645 18 95 71 136 188 145 73 5 75 6 76 33 l2 27 -277 0 -278 0 -52
-122 c-29 -68 -61 -142 -72 -166 -34 -76 -410 -945 -435 -1007 -27 -64 -48
-113 -94 -213 -16 -35 -29 -68 -29 -73 0 -34 -29 24 -139 274 -68 155 -139
315 -158 355 -18 41 -33 75 -33 78 0 2 -15 37 -33 76 -18 40 -105 236 -193
436 l-159 362 -277 0 -277 0 1 -30z"/>
</g>
</svg>
